<mxfile host="app.diagrams.net" modified="2023-09-19T18:59:22.184Z" agent="Mozilla/5.0 (Windows NT 10.0; Win64; x64) AppleWebKit/537.36 (KHTML, like Gecko) Chrome/116.0.0.0 Safari/537.36 OPR/102.0.0.0" etag="1a8zjYCtpekxYsT_6K4O" version="21.7.5" type="github">
  <diagram id="R2lEEEUBdFMjLlhIrx00" name="Page-1">
    <mxGraphModel dx="1698" dy="910" grid="1" gridSize="10" guides="1" tooltips="1" connect="1" arrows="1" fold="1" page="1" pageScale="1" pageWidth="850" pageHeight="1100" math="0" shadow="0" extFonts="Permanent Marker^https://fonts.googleapis.com/css?family=Permanent+Marker">
      <root>
        <mxCell id="0" />
        <mxCell id="1" parent="0" />
        <mxCell id="rzLMAFO-Es9SBmrTh6eH-7" value="Холст" style="swimlane;childLayout=stackLayout;horizontal=1;startSize=50;horizontalStack=0;rounded=1;fontSize=14;fontStyle=0;strokeWidth=2;resizeParent=0;resizeLast=1;shadow=0;dashed=0;align=center;arcSize=4;whiteSpace=wrap;html=1;fillColor=#f8cecc;strokeColor=#b85450;" vertex="1" parent="1">
          <mxGeometry x="730" y="333" width="160" height="120" as="geometry" />
        </mxCell>
        <mxCell id="rzLMAFO-Es9SBmrTh6eH-8" value="Размер холста&lt;br&gt;Цвет холста" style="align=left;strokeColor=none;fillColor=none;spacingLeft=4;fontSize=12;verticalAlign=top;resizable=0;rotatable=0;part=1;html=1;" vertex="1" parent="rzLMAFO-Es9SBmrTh6eH-7">
          <mxGeometry y="50" width="160" height="70" as="geometry" />
        </mxCell>
        <mxCell id="rzLMAFO-Es9SBmrTh6eH-78" style="edgeStyle=orthogonalEdgeStyle;rounded=0;orthogonalLoop=1;jettySize=auto;html=1;entryX=0;entryY=0.25;entryDx=0;entryDy=0;" edge="1" parent="1" source="rzLMAFO-Es9SBmrTh6eH-10" target="rzLMAFO-Es9SBmrTh6eH-7">
          <mxGeometry relative="1" as="geometry" />
        </mxCell>
        <mxCell id="rzLMAFO-Es9SBmrTh6eH-10" value="Применяется&amp;nbsp;&lt;br&gt;к холсту" style="rhombus;whiteSpace=wrap;html=1;fillColor=#dae8fc;strokeColor=#6c8ebf;" vertex="1" parent="1">
          <mxGeometry x="460" y="240" width="150" height="80" as="geometry" />
        </mxCell>
        <mxCell id="rzLMAFO-Es9SBmrTh6eH-18" style="edgeStyle=orthogonalEdgeStyle;rounded=0;orthogonalLoop=1;jettySize=auto;html=1;entryX=0.007;entryY=0.387;entryDx=0;entryDy=0;entryPerimeter=0;" edge="1" parent="1" source="rzLMAFO-Es9SBmrTh6eH-11" target="rzLMAFO-Es9SBmrTh6eH-7">
          <mxGeometry relative="1" as="geometry" />
        </mxCell>
        <mxCell id="rzLMAFO-Es9SBmrTh6eH-11" value="Содержится&lt;br style=&quot;border-color: var(--border-color);&quot;&gt;на холсте" style="rhombus;whiteSpace=wrap;html=1;fillColor=#dae8fc;strokeColor=#6c8ebf;" vertex="1" parent="1">
          <mxGeometry x="460" y="390" width="150" height="80" as="geometry" />
        </mxCell>
        <mxCell id="rzLMAFO-Es9SBmrTh6eH-19" style="edgeStyle=orthogonalEdgeStyle;rounded=0;orthogonalLoop=1;jettySize=auto;html=1;entryX=-0.002;entryY=0.826;entryDx=0;entryDy=0;entryPerimeter=0;" edge="1" parent="1" source="rzLMAFO-Es9SBmrTh6eH-12" target="rzLMAFO-Es9SBmrTh6eH-8">
          <mxGeometry relative="1" as="geometry" />
        </mxCell>
        <mxCell id="rzLMAFO-Es9SBmrTh6eH-12" value="Содержится &lt;br&gt;на холсте" style="rhombus;whiteSpace=wrap;html=1;fillColor=#dae8fc;strokeColor=#6c8ebf;" vertex="1" parent="1">
          <mxGeometry x="460" y="538" width="150" height="80" as="geometry" />
        </mxCell>
        <mxCell id="rzLMAFO-Es9SBmrTh6eH-16" style="edgeStyle=orthogonalEdgeStyle;rounded=0;orthogonalLoop=1;jettySize=auto;html=1;" edge="1" parent="1" source="rzLMAFO-Es9SBmrTh6eH-13" target="rzLMAFO-Es9SBmrTh6eH-7">
          <mxGeometry relative="1" as="geometry">
            <Array as="points">
              <mxPoint x="750" y="150" />
            </Array>
          </mxGeometry>
        </mxCell>
        <mxCell id="rzLMAFO-Es9SBmrTh6eH-13" value="Применяется&amp;nbsp;&lt;br&gt;к холсту" style="rhombus;whiteSpace=wrap;html=1;fillColor=#dae8fc;strokeColor=#6c8ebf;" vertex="1" parent="1">
          <mxGeometry x="460" y="110" width="150" height="80" as="geometry" />
        </mxCell>
        <mxCell id="rzLMAFO-Es9SBmrTh6eH-20" style="edgeStyle=orthogonalEdgeStyle;rounded=0;orthogonalLoop=1;jettySize=auto;html=1;entryX=0.25;entryY=1;entryDx=0;entryDy=0;" edge="1" parent="1" source="rzLMAFO-Es9SBmrTh6eH-14" target="rzLMAFO-Es9SBmrTh6eH-8">
          <mxGeometry relative="1" as="geometry">
            <Array as="points">
              <mxPoint x="770" y="710" />
            </Array>
          </mxGeometry>
        </mxCell>
        <mxCell id="rzLMAFO-Es9SBmrTh6eH-14" value="Содержится&lt;br style=&quot;border-color: var(--border-color);&quot;&gt;на холсте" style="rhombus;whiteSpace=wrap;html=1;fillColor=#dae8fc;strokeColor=#6c8ebf;" vertex="1" parent="1">
          <mxGeometry x="460" y="670" width="150" height="80" as="geometry" />
        </mxCell>
        <mxCell id="rzLMAFO-Es9SBmrTh6eH-35" style="edgeStyle=orthogonalEdgeStyle;rounded=0;orthogonalLoop=1;jettySize=auto;html=1;" edge="1" parent="1" source="rzLMAFO-Es9SBmrTh6eH-21" target="rzLMAFO-Es9SBmrTh6eH-13">
          <mxGeometry relative="1" as="geometry" />
        </mxCell>
        <mxCell id="rzLMAFO-Es9SBmrTh6eH-21" value="Действия" style="swimlane;fontStyle=0;childLayout=stackLayout;horizontal=1;startSize=26;horizontalStack=0;resizeParent=1;resizeParentMax=0;resizeLast=0;collapsible=1;marginBottom=0;align=center;fontSize=14;fillColor=#d5e8d4;strokeColor=#82b366;" vertex="1" parent="1">
          <mxGeometry x="210" y="110" width="160" height="56" as="geometry" />
        </mxCell>
        <mxCell id="rzLMAFO-Es9SBmrTh6eH-22" value="Применение фильтра" style="text;strokeColor=none;fillColor=none;spacingLeft=4;spacingRight=4;overflow=hidden;rotatable=0;points=[[0,0.5],[1,0.5]];portConstraint=eastwest;fontSize=12;whiteSpace=wrap;html=1;" vertex="1" parent="rzLMAFO-Es9SBmrTh6eH-21">
          <mxGeometry y="26" width="160" height="30" as="geometry" />
        </mxCell>
        <mxCell id="rzLMAFO-Es9SBmrTh6eH-36" value="" style="edgeStyle=orthogonalEdgeStyle;rounded=0;orthogonalLoop=1;jettySize=auto;html=1;" edge="1" parent="1" source="rzLMAFO-Es9SBmrTh6eH-26" target="rzLMAFO-Es9SBmrTh6eH-10">
          <mxGeometry relative="1" as="geometry" />
        </mxCell>
        <mxCell id="rzLMAFO-Es9SBmrTh6eH-26" value="Действия" style="swimlane;fontStyle=0;childLayout=stackLayout;horizontal=1;startSize=26;horizontalStack=0;resizeParent=1;resizeParentMax=0;resizeLast=0;collapsible=1;marginBottom=0;align=center;fontSize=14;fillColor=#d5e8d4;strokeColor=#82b366;" vertex="1" parent="1">
          <mxGeometry x="210" y="252" width="160" height="56" as="geometry" />
        </mxCell>
        <mxCell id="rzLMAFO-Es9SBmrTh6eH-27" value="Выбор шаблона" style="text;strokeColor=none;fillColor=none;spacingLeft=4;spacingRight=4;overflow=hidden;rotatable=0;points=[[0,0.5],[1,0.5]];portConstraint=eastwest;fontSize=12;whiteSpace=wrap;html=1;" vertex="1" parent="rzLMAFO-Es9SBmrTh6eH-26">
          <mxGeometry y="26" width="160" height="30" as="geometry" />
        </mxCell>
        <mxCell id="rzLMAFO-Es9SBmrTh6eH-37" value="" style="edgeStyle=orthogonalEdgeStyle;rounded=0;orthogonalLoop=1;jettySize=auto;html=1;" edge="1" parent="1" source="rzLMAFO-Es9SBmrTh6eH-28" target="rzLMAFO-Es9SBmrTh6eH-11">
          <mxGeometry relative="1" as="geometry" />
        </mxCell>
        <mxCell id="rzLMAFO-Es9SBmrTh6eH-28" value="Действия" style="swimlane;fontStyle=0;childLayout=stackLayout;horizontal=1;startSize=26;horizontalStack=0;resizeParent=1;resizeParentMax=0;resizeLast=0;collapsible=1;marginBottom=0;align=center;fontSize=14;fillColor=#d5e8d4;strokeColor=#82b366;" vertex="1" parent="1">
          <mxGeometry x="220" y="380" width="160" height="100" as="geometry" />
        </mxCell>
        <mxCell id="rzLMAFO-Es9SBmrTh6eH-29" value="Добавление текста&lt;br&gt;Удаление&lt;br&gt;Выбор размера&lt;br&gt;Перемещение" style="text;strokeColor=none;fillColor=none;spacingLeft=4;spacingRight=4;overflow=hidden;rotatable=0;points=[[0,0.5],[1,0.5]];portConstraint=eastwest;fontSize=12;whiteSpace=wrap;html=1;" vertex="1" parent="rzLMAFO-Es9SBmrTh6eH-28">
          <mxGeometry y="26" width="160" height="74" as="geometry" />
        </mxCell>
        <mxCell id="rzLMAFO-Es9SBmrTh6eH-38" value="" style="edgeStyle=orthogonalEdgeStyle;rounded=0;orthogonalLoop=1;jettySize=auto;html=1;" edge="1" parent="1" source="rzLMAFO-Es9SBmrTh6eH-30" target="rzLMAFO-Es9SBmrTh6eH-12">
          <mxGeometry relative="1" as="geometry" />
        </mxCell>
        <mxCell id="rzLMAFO-Es9SBmrTh6eH-30" value="Действия" style="swimlane;fontStyle=0;childLayout=stackLayout;horizontal=1;startSize=26;horizontalStack=0;resizeParent=1;resizeParentMax=0;resizeLast=0;collapsible=1;marginBottom=0;align=center;fontSize=14;fillColor=#d5e8d4;strokeColor=#82b366;" vertex="1" parent="1">
          <mxGeometry x="220" y="550" width="160" height="100" as="geometry" />
        </mxCell>
        <mxCell id="rzLMAFO-Es9SBmrTh6eH-31" value="Загрузка&lt;br&gt;Перемещение&lt;br&gt;Изменение размера&lt;br&gt;Удаление изображения" style="text;strokeColor=none;fillColor=none;spacingLeft=4;spacingRight=4;overflow=hidden;rotatable=0;points=[[0,0.5],[1,0.5]];portConstraint=eastwest;fontSize=12;whiteSpace=wrap;html=1;" vertex="1" parent="rzLMAFO-Es9SBmrTh6eH-30">
          <mxGeometry y="26" width="160" height="74" as="geometry" />
        </mxCell>
        <mxCell id="rzLMAFO-Es9SBmrTh6eH-39" value="" style="edgeStyle=orthogonalEdgeStyle;rounded=0;orthogonalLoop=1;jettySize=auto;html=1;" edge="1" parent="1" source="rzLMAFO-Es9SBmrTh6eH-32" target="rzLMAFO-Es9SBmrTh6eH-14">
          <mxGeometry relative="1" as="geometry" />
        </mxCell>
        <mxCell id="rzLMAFO-Es9SBmrTh6eH-32" value="Действия" style="swimlane;fontStyle=0;childLayout=stackLayout;horizontal=1;startSize=26;horizontalStack=0;resizeParent=1;resizeParentMax=0;resizeLast=0;collapsible=1;marginBottom=0;align=center;fontSize=14;fillColor=#d5e8d4;strokeColor=#82b366;" vertex="1" parent="1">
          <mxGeometry x="220" y="694" width="160" height="100" as="geometry" />
        </mxCell>
        <mxCell id="rzLMAFO-Es9SBmrTh6eH-33" value="Добавление&lt;br&gt;Изменение размера&lt;br&gt;Перемещение&amp;nbsp;&lt;br&gt;Удаление" style="text;strokeColor=none;fillColor=none;spacingLeft=4;spacingRight=4;overflow=hidden;rotatable=0;points=[[0,0.5],[1,0.5]];portConstraint=eastwest;fontSize=12;whiteSpace=wrap;html=1;" vertex="1" parent="rzLMAFO-Es9SBmrTh6eH-32">
          <mxGeometry y="26" width="160" height="74" as="geometry" />
        </mxCell>
        <mxCell id="rzLMAFO-Es9SBmrTh6eH-40" value="Фильтр" style="swimlane;childLayout=stackLayout;horizontal=1;startSize=50;horizontalStack=0;rounded=1;fontSize=14;fontStyle=0;strokeWidth=2;resizeParent=0;resizeLast=1;shadow=0;dashed=0;align=center;arcSize=4;whiteSpace=wrap;html=1;fillColor=#fff2cc;strokeColor=#d6b656;" vertex="1" parent="1">
          <mxGeometry x="10" y="90" width="160" height="120" as="geometry" />
        </mxCell>
        <mxCell id="rzLMAFO-Es9SBmrTh6eH-41" value="Тип фильтра" style="align=left;strokeColor=none;fillColor=none;spacingLeft=4;fontSize=12;verticalAlign=top;resizable=0;rotatable=0;part=1;html=1;" vertex="1" parent="rzLMAFO-Es9SBmrTh6eH-40">
          <mxGeometry y="50" width="160" height="70" as="geometry" />
        </mxCell>
        <mxCell id="rzLMAFO-Es9SBmrTh6eH-43" style="edgeStyle=orthogonalEdgeStyle;rounded=0;orthogonalLoop=1;jettySize=auto;html=1;exitX=0.5;exitY=1;exitDx=0;exitDy=0;" edge="1" parent="rzLMAFO-Es9SBmrTh6eH-40" source="rzLMAFO-Es9SBmrTh6eH-41" target="rzLMAFO-Es9SBmrTh6eH-41">
          <mxGeometry relative="1" as="geometry" />
        </mxCell>
        <mxCell id="rzLMAFO-Es9SBmrTh6eH-42" value="" style="edgeStyle=orthogonalEdgeStyle;rounded=0;orthogonalLoop=1;jettySize=auto;html=1;" edge="1" parent="1" source="rzLMAFO-Es9SBmrTh6eH-41" target="rzLMAFO-Es9SBmrTh6eH-22">
          <mxGeometry relative="1" as="geometry" />
        </mxCell>
        <mxCell id="rzLMAFO-Es9SBmrTh6eH-51" value="" style="edgeStyle=orthogonalEdgeStyle;rounded=0;orthogonalLoop=1;jettySize=auto;html=1;" edge="1" parent="1" source="rzLMAFO-Es9SBmrTh6eH-47" target="rzLMAFO-Es9SBmrTh6eH-27">
          <mxGeometry relative="1" as="geometry" />
        </mxCell>
        <mxCell id="rzLMAFO-Es9SBmrTh6eH-47" value="Шаблон открытки" style="swimlane;childLayout=stackLayout;horizontal=1;startSize=50;horizontalStack=0;rounded=1;fontSize=14;fontStyle=0;strokeWidth=2;resizeParent=0;resizeLast=1;shadow=0;dashed=0;align=center;arcSize=4;whiteSpace=wrap;html=1;fillColor=#fff2cc;strokeColor=#d6b656;" vertex="1" parent="1">
          <mxGeometry x="10" y="230" width="160" height="120" as="geometry" />
        </mxCell>
        <mxCell id="rzLMAFO-Es9SBmrTh6eH-48" value="Дизайн&lt;br&gt;Размер" style="align=left;strokeColor=none;fillColor=none;spacingLeft=4;fontSize=12;verticalAlign=top;resizable=0;rotatable=0;part=1;html=1;" vertex="1" parent="rzLMAFO-Es9SBmrTh6eH-47">
          <mxGeometry y="50" width="160" height="70" as="geometry" />
        </mxCell>
        <mxCell id="rzLMAFO-Es9SBmrTh6eH-49" style="edgeStyle=orthogonalEdgeStyle;rounded=0;orthogonalLoop=1;jettySize=auto;html=1;exitX=0.5;exitY=1;exitDx=0;exitDy=0;" edge="1" parent="rzLMAFO-Es9SBmrTh6eH-47" source="rzLMAFO-Es9SBmrTh6eH-48" target="rzLMAFO-Es9SBmrTh6eH-48">
          <mxGeometry relative="1" as="geometry" />
        </mxCell>
        <mxCell id="rzLMAFO-Es9SBmrTh6eH-55" value="" style="edgeStyle=orthogonalEdgeStyle;rounded=0;orthogonalLoop=1;jettySize=auto;html=1;" edge="1" parent="1" source="rzLMAFO-Es9SBmrTh6eH-52" target="rzLMAFO-Es9SBmrTh6eH-29">
          <mxGeometry relative="1" as="geometry" />
        </mxCell>
        <mxCell id="rzLMAFO-Es9SBmrTh6eH-52" value="Текст" style="swimlane;childLayout=stackLayout;horizontal=1;startSize=50;horizontalStack=0;rounded=1;fontSize=14;fontStyle=0;strokeWidth=2;resizeParent=0;resizeLast=1;shadow=0;dashed=0;align=center;arcSize=4;whiteSpace=wrap;html=1;fillColor=#fff2cc;strokeColor=#d6b656;" vertex="1" parent="1">
          <mxGeometry x="10" y="370" width="160" height="120" as="geometry" />
        </mxCell>
        <mxCell id="rzLMAFO-Es9SBmrTh6eH-53" value="Цвет&lt;br&gt;Размер&lt;br&gt;Содержание" style="align=left;strokeColor=none;fillColor=none;spacingLeft=4;fontSize=12;verticalAlign=top;resizable=0;rotatable=0;part=1;html=1;" vertex="1" parent="rzLMAFO-Es9SBmrTh6eH-52">
          <mxGeometry y="50" width="160" height="70" as="geometry" />
        </mxCell>
        <mxCell id="rzLMAFO-Es9SBmrTh6eH-54" style="edgeStyle=orthogonalEdgeStyle;rounded=0;orthogonalLoop=1;jettySize=auto;html=1;exitX=0.5;exitY=1;exitDx=0;exitDy=0;" edge="1" parent="rzLMAFO-Es9SBmrTh6eH-52" source="rzLMAFO-Es9SBmrTh6eH-53" target="rzLMAFO-Es9SBmrTh6eH-53">
          <mxGeometry relative="1" as="geometry" />
        </mxCell>
        <mxCell id="rzLMAFO-Es9SBmrTh6eH-59" value="" style="edgeStyle=orthogonalEdgeStyle;rounded=0;orthogonalLoop=1;jettySize=auto;html=1;" edge="1" parent="1" source="rzLMAFO-Es9SBmrTh6eH-56" target="rzLMAFO-Es9SBmrTh6eH-31">
          <mxGeometry relative="1" as="geometry" />
        </mxCell>
        <mxCell id="rzLMAFO-Es9SBmrTh6eH-56" value="Изображение" style="swimlane;childLayout=stackLayout;horizontal=1;startSize=50;horizontalStack=0;rounded=1;fontSize=14;fontStyle=0;strokeWidth=2;resizeParent=0;resizeLast=1;shadow=0;dashed=0;align=center;arcSize=4;whiteSpace=wrap;html=1;fillColor=#fff2cc;strokeColor=#d6b656;" vertex="1" parent="1">
          <mxGeometry x="10" y="531" width="160" height="120" as="geometry" />
        </mxCell>
        <mxCell id="rzLMAFO-Es9SBmrTh6eH-57" value="Размер&lt;br&gt;Положение на холсте" style="align=left;strokeColor=none;fillColor=none;spacingLeft=4;fontSize=12;verticalAlign=top;resizable=0;rotatable=0;part=1;html=1;" vertex="1" parent="rzLMAFO-Es9SBmrTh6eH-56">
          <mxGeometry y="50" width="160" height="70" as="geometry" />
        </mxCell>
        <mxCell id="rzLMAFO-Es9SBmrTh6eH-58" style="edgeStyle=orthogonalEdgeStyle;rounded=0;orthogonalLoop=1;jettySize=auto;html=1;exitX=0.5;exitY=1;exitDx=0;exitDy=0;" edge="1" parent="rzLMAFO-Es9SBmrTh6eH-56" source="rzLMAFO-Es9SBmrTh6eH-57" target="rzLMAFO-Es9SBmrTh6eH-57">
          <mxGeometry relative="1" as="geometry" />
        </mxCell>
        <mxCell id="rzLMAFO-Es9SBmrTh6eH-63" value="" style="edgeStyle=orthogonalEdgeStyle;rounded=0;orthogonalLoop=1;jettySize=auto;html=1;" edge="1" parent="1" source="rzLMAFO-Es9SBmrTh6eH-60" target="rzLMAFO-Es9SBmrTh6eH-33">
          <mxGeometry relative="1" as="geometry" />
        </mxCell>
        <mxCell id="rzLMAFO-Es9SBmrTh6eH-60" value="Арт-объект" style="swimlane;childLayout=stackLayout;horizontal=1;startSize=50;horizontalStack=0;rounded=1;fontSize=14;fontStyle=0;strokeWidth=2;resizeParent=0;resizeLast=1;shadow=0;dashed=0;align=center;arcSize=4;whiteSpace=wrap;html=1;fillColor=#fff2cc;strokeColor=#d6b656;" vertex="1" parent="1">
          <mxGeometry x="10" y="684" width="160" height="120" as="geometry" />
        </mxCell>
        <mxCell id="rzLMAFO-Es9SBmrTh6eH-61" value="Размер&lt;br&gt;Положение на холсте" style="align=left;strokeColor=none;fillColor=none;spacingLeft=4;fontSize=12;verticalAlign=top;resizable=0;rotatable=0;part=1;html=1;" vertex="1" parent="rzLMAFO-Es9SBmrTh6eH-60">
          <mxGeometry y="50" width="160" height="70" as="geometry" />
        </mxCell>
        <mxCell id="rzLMAFO-Es9SBmrTh6eH-62" style="edgeStyle=orthogonalEdgeStyle;rounded=0;orthogonalLoop=1;jettySize=auto;html=1;exitX=0.5;exitY=1;exitDx=0;exitDy=0;" edge="1" parent="rzLMAFO-Es9SBmrTh6eH-60" source="rzLMAFO-Es9SBmrTh6eH-61" target="rzLMAFO-Es9SBmrTh6eH-61">
          <mxGeometry relative="1" as="geometry" />
        </mxCell>
        <mxCell id="rzLMAFO-Es9SBmrTh6eH-65" style="edgeStyle=orthogonalEdgeStyle;rounded=0;orthogonalLoop=1;jettySize=auto;html=1;entryX=1;entryY=0;entryDx=0;entryDy=0;" edge="1" parent="1" source="rzLMAFO-Es9SBmrTh6eH-64" target="rzLMAFO-Es9SBmrTh6eH-7">
          <mxGeometry relative="1" as="geometry" />
        </mxCell>
        <mxCell id="rzLMAFO-Es9SBmrTh6eH-64" value="Передача &lt;br&gt;изображения&lt;br&gt;в виде файла" style="rhombus;whiteSpace=wrap;html=1;fillColor=#dae8fc;strokeColor=#6c8ebf;" vertex="1" parent="1">
          <mxGeometry x="780" y="190" width="150" height="110" as="geometry" />
        </mxCell>
        <mxCell id="rzLMAFO-Es9SBmrTh6eH-66" value="Экспорт изображения" style="swimlane;childLayout=stackLayout;horizontal=1;startSize=50;horizontalStack=0;rounded=1;fontSize=14;fontStyle=0;strokeWidth=2;resizeParent=0;resizeLast=1;shadow=0;dashed=0;align=center;arcSize=4;whiteSpace=wrap;html=1;fillColor=#fff2cc;strokeColor=#d6b656;" vertex="1" parent="1">
          <mxGeometry x="865" y="40" width="160" height="120" as="geometry" />
        </mxCell>
        <mxCell id="rzLMAFO-Es9SBmrTh6eH-67" value="Формат" style="align=left;strokeColor=none;fillColor=none;spacingLeft=4;fontSize=12;verticalAlign=top;resizable=0;rotatable=0;part=1;html=1;" vertex="1" parent="rzLMAFO-Es9SBmrTh6eH-66">
          <mxGeometry y="50" width="160" height="70" as="geometry" />
        </mxCell>
        <mxCell id="rzLMAFO-Es9SBmrTh6eH-68" style="edgeStyle=orthogonalEdgeStyle;rounded=0;orthogonalLoop=1;jettySize=auto;html=1;exitX=0.5;exitY=1;exitDx=0;exitDy=0;" edge="1" parent="rzLMAFO-Es9SBmrTh6eH-66" source="rzLMAFO-Es9SBmrTh6eH-67" target="rzLMAFO-Es9SBmrTh6eH-67">
          <mxGeometry relative="1" as="geometry" />
        </mxCell>
        <mxCell id="rzLMAFO-Es9SBmrTh6eH-69" style="edgeStyle=orthogonalEdgeStyle;rounded=0;orthogonalLoop=1;jettySize=auto;html=1;entryX=0.5;entryY=0;entryDx=0;entryDy=0;" edge="1" parent="1" source="rzLMAFO-Es9SBmrTh6eH-67" target="rzLMAFO-Es9SBmrTh6eH-64">
          <mxGeometry relative="1" as="geometry" />
        </mxCell>
        <mxCell id="rzLMAFO-Es9SBmrTh6eH-72" value="" style="edgeStyle=orthogonalEdgeStyle;rounded=0;orthogonalLoop=1;jettySize=auto;html=1;" edge="1" parent="1" source="rzLMAFO-Es9SBmrTh6eH-70" target="rzLMAFO-Es9SBmrTh6eH-67">
          <mxGeometry relative="1" as="geometry" />
        </mxCell>
        <mxCell id="rzLMAFO-Es9SBmrTh6eH-70" value="Действия" style="swimlane;fontStyle=0;childLayout=stackLayout;horizontal=1;startSize=26;horizontalStack=0;resizeParent=1;resizeParentMax=0;resizeLast=0;collapsible=1;marginBottom=0;align=center;fontSize=14;fillColor=#d5e8d4;strokeColor=#82b366;" vertex="1" parent="1">
          <mxGeometry x="1130" y="54" width="160" height="56" as="geometry" />
        </mxCell>
        <mxCell id="rzLMAFO-Es9SBmrTh6eH-71" value="Выбор формата" style="text;strokeColor=none;fillColor=none;spacingLeft=4;spacingRight=4;overflow=hidden;rotatable=0;points=[[0,0.5],[1,0.5]];portConstraint=eastwest;fontSize=12;whiteSpace=wrap;html=1;" vertex="1" parent="rzLMAFO-Es9SBmrTh6eH-70">
          <mxGeometry y="26" width="160" height="30" as="geometry" />
        </mxCell>
        <mxCell id="rzLMAFO-Es9SBmrTh6eH-73" value="Действия" style="swimlane;fontStyle=0;childLayout=stackLayout;horizontal=1;startSize=26;horizontalStack=0;resizeParent=1;resizeParentMax=0;resizeLast=0;collapsible=1;marginBottom=0;align=center;fontSize=14;fillColor=#d5e8d4;strokeColor=#82b366;" vertex="1" parent="1">
          <mxGeometry x="1060" y="330" width="160" height="140" as="geometry" />
        </mxCell>
        <mxCell id="rzLMAFO-Es9SBmrTh6eH-74" value="Создание нового холста&lt;br&gt;Изменение размеров&lt;br&gt;Выбор цвета&lt;br&gt;Добавление изображений,&lt;br&gt;текста и арт-объектов&lt;br&gt;Применение фильторв" style="text;strokeColor=none;fillColor=none;spacingLeft=4;spacingRight=4;overflow=hidden;rotatable=0;points=[[0,0.5],[1,0.5]];portConstraint=eastwest;fontSize=12;whiteSpace=wrap;html=1;" vertex="1" parent="rzLMAFO-Es9SBmrTh6eH-73">
          <mxGeometry y="26" width="160" height="114" as="geometry" />
        </mxCell>
        <mxCell id="rzLMAFO-Es9SBmrTh6eH-77" style="edgeStyle=orthogonalEdgeStyle;rounded=0;orthogonalLoop=1;jettySize=auto;html=1;entryX=1;entryY=0.25;entryDx=0;entryDy=0;" edge="1" parent="1" source="rzLMAFO-Es9SBmrTh6eH-74" target="rzLMAFO-Es9SBmrTh6eH-8">
          <mxGeometry relative="1" as="geometry" />
        </mxCell>
        <mxCell id="rzLMAFO-Es9SBmrTh6eH-82" style="edgeStyle=orthogonalEdgeStyle;rounded=0;orthogonalLoop=1;jettySize=auto;html=1;entryX=0.821;entryY=1.029;entryDx=0;entryDy=0;entryPerimeter=0;" edge="1" parent="1" source="rzLMAFO-Es9SBmrTh6eH-79" target="rzLMAFO-Es9SBmrTh6eH-8">
          <mxGeometry relative="1" as="geometry" />
        </mxCell>
        <mxCell id="rzLMAFO-Es9SBmrTh6eH-79" value="История команд" style="swimlane;childLayout=stackLayout;horizontal=1;startSize=50;horizontalStack=0;rounded=1;fontSize=14;fontStyle=0;strokeWidth=2;resizeParent=0;resizeLast=1;shadow=0;dashed=0;align=center;arcSize=4;whiteSpace=wrap;html=1;fillColor=#fff2cc;strokeColor=#d6b656;" vertex="1" parent="1">
          <mxGeometry x="890" y="560" width="160" height="120" as="geometry" />
        </mxCell>
        <mxCell id="rzLMAFO-Es9SBmrTh6eH-80" value="Список выполненных&lt;br&gt;команд" style="align=left;strokeColor=none;fillColor=none;spacingLeft=4;fontSize=12;verticalAlign=top;resizable=0;rotatable=0;part=1;html=1;" vertex="1" parent="rzLMAFO-Es9SBmrTh6eH-79">
          <mxGeometry y="50" width="160" height="70" as="geometry" />
        </mxCell>
        <mxCell id="rzLMAFO-Es9SBmrTh6eH-81" style="edgeStyle=orthogonalEdgeStyle;rounded=0;orthogonalLoop=1;jettySize=auto;html=1;exitX=0.5;exitY=1;exitDx=0;exitDy=0;" edge="1" parent="rzLMAFO-Es9SBmrTh6eH-79" source="rzLMAFO-Es9SBmrTh6eH-80" target="rzLMAFO-Es9SBmrTh6eH-80">
          <mxGeometry relative="1" as="geometry" />
        </mxCell>
        <mxCell id="rzLMAFO-Es9SBmrTh6eH-85" style="edgeStyle=orthogonalEdgeStyle;rounded=0;orthogonalLoop=1;jettySize=auto;html=1;entryX=0.5;entryY=1;entryDx=0;entryDy=0;" edge="1" parent="1" source="rzLMAFO-Es9SBmrTh6eH-83" target="rzLMAFO-Es9SBmrTh6eH-80">
          <mxGeometry relative="1" as="geometry" />
        </mxCell>
        <mxCell id="rzLMAFO-Es9SBmrTh6eH-83" value="Действия" style="swimlane;fontStyle=0;childLayout=stackLayout;horizontal=1;startSize=26;horizontalStack=0;resizeParent=1;resizeParentMax=0;resizeLast=0;collapsible=1;marginBottom=0;align=center;fontSize=14;fillColor=#d5e8d4;strokeColor=#82b366;" vertex="1" parent="1">
          <mxGeometry x="890" y="738" width="160" height="100" as="geometry" />
        </mxCell>
        <mxCell id="rzLMAFO-Es9SBmrTh6eH-84" value="Запись команды&lt;br&gt;Отмена последней&lt;br&gt;Восстановление" style="text;strokeColor=none;fillColor=none;spacingLeft=4;spacingRight=4;overflow=hidden;rotatable=0;points=[[0,0.5],[1,0.5]];portConstraint=eastwest;fontSize=12;whiteSpace=wrap;html=1;" vertex="1" parent="rzLMAFO-Es9SBmrTh6eH-83">
          <mxGeometry y="26" width="160" height="74" as="geometry" />
        </mxCell>
      </root>
    </mxGraphModel>
  </diagram>
</mxfile>
